<svg xmlns="http://www.w3.org/2000/svg" fill="none" viewBox="0 0 24 24" stroke-width="1.5" stroke="currentColor" aria-hidden="true">
    <path stroke-linecap="round" stroke-linejoin="round" d="M9.75 3.104v5.714a2.25 2.25 0 01-.659 1.591L5 14.5M9.75 3.104c-.251.023-.501.05-.75.082m.75-.082a24.301 24.301 0 014.5 0m0 0v5.714c0 .597.237 1.17.659 1.591L19 14.5M14.25 3.104c.251.023.501.05.75.082M19 14.5v.214a2.25 2.25 0 01-1.125 1.949l-6.5 3.5c-.51.275-1.135.275-1.645 0l-6.5-3.5A2.25 2.25 0 015 14.714v-.214M19 14.5a2.25 2.25 0 00-2.25-2.25h-5a2.25 2.25 0 00-2.25 2.25m11.5-2.25a2.25 2.25 0 01-2.25 2.25h-5a2.25 2.25 0 01-2.25-2.25m0 0M9.75 14.5c0-1.036 1.006-1.875 2.25-1.875h.008c1.244 0 2.25.84 2.25 1.875M9.75 14.5h4.5" />
  </svg>