<svg width="100%" height="100%" viewBox="0 0 100 100" xmlns="http://www.w3.org/2000/svg">
        <defs>
            <linearGradient id="grad-stash" x1="0%" y1="0%" x2="100%" y2="100%">
                <stop offset="0%" style="stop-color: #8B5CF6; stop-opacity: 1" />
                <stop offset="100%" style="stop-color: #EC4899; stop-opacity: 1" />
            </linearGradient>
            <style>
                .sparkle {
                    animation: sparkle-anim 2s infinite ease-in-out;
                    transform-origin: center;
                }
                @keyframes sparkle-anim {
                    0%, 100% { transform: scale(0.8); opacity: 0.5; }
                    50% { transform: scale(1.1); opacity: 1; }
                }
            </style>
        </defs>
        <rect width="100" height="100" rx="20" fill="url(#grad-stash)" />
        <path d="M30 25 H70 A10 10 0 0 1 80 35 V 80 H20 V 35 A10 10 0 0 1 30 25 Z" fill="#FFFFFF" fill-opacity="0.15"/>
        <path d="M40 30 V 70 L 50 60 L 60 70 V 30 H 40 Z" fill="#FFFFFF"/>
        <path class="sparkle" style="animation-delay: 0s" d="M68 28 L 70 33 L 72 28 L 77 26 L 72 24 L 70 19 L 68 24 L 63 26 Z" fill="#FBBF24"/>
        <path class="sparkle" style="animation-delay: 0.5s" d="M28 65 L 30 70 L 32 65 L 37 63 L 32 61 L 30 56 L 28 61 L 23 63 Z" fill="#FBBF24" opacity="0.7"/>
    </svg>