<svg xmlns="http://www.w3.org/2000/svg" viewBox="0 0 24 24" fill="currentColor" aria-hidden="true">
    <path fill-rule="evenodd" d="M4.5 3.75a3 3 0 00-3 3v10.5a3 3 0 003 3h15a3 3 0 003-3V6.75a3 3 0 00-3-3h-15zm4.125 3a2.25 2.25 0 100 4.5 2.25 2.25 0 000-4.5zm-3.875 3a.375.375 0 01.375-.375h2.25a.375.375 0 010 .75h-2.25a.375.375 0 01-.375-.375zm10.125-3a2.25 2.25 0 100 4.5 2.25 2.25 0 000-4.5zm-3.875 3a.375.375 0 01.375-.375h2.25a.375.375 0 010 .75h-2.25a.375.375 0 01-.375-.375zM8.625 15a.375.375 0 01.375-.375h6a.375.375 0 010 .75h-6a.375.375 0 01-.375-.375z" clip-rule="evenodd" />
  </svg>