<svg viewBox="0 0 100 100" xmlns="http://www.w3.org/2000/svg">
    <defs>
        <style>
            .filament-pulse-brainstorm {
                animation: filament-pulse-anim-brainstorm 2s infinite ease-in-out;
            }
            @keyframes filament-pulse-anim-brainstorm {
                0%, 100% { stroke: #a78bfa; opacity: 0.8; }
                50% { stroke: #ede9fe; opacity: 1; }
            }
        </style>
    </defs>
    <rect width="100" height="100" rx="10" fill="#5b21b6"/>
    <g transform="translate(0 -5)">
        <path d="M50,20 C35,20 30,35 30,50 C30,65 38,70 50,80 C62,70 70,65 70,50 C70,35 65,20 50,20 Z" fill="#a78bfa" fill-opacity="0.8"/>
        <rect x="40" y="80" width="20" height="5" rx="2" fill="#9ca3af"/>
        <rect x="35" y="85" width="30" height="8" rx="3" fill="#6b7280"/>
        <path class="filament-pulse-brainstorm" d="M50 35 C 45 35, 45 45, 50 45 C 55 45, 55 35, 50 35 M50 45 C 45 45, 45 55, 50 55 C 55 55, 55 45, 50 45" fill="none" stroke-width="3"/>
    </g>
</svg>