<svg xmlns="http://www.w3.org/2000/svg" viewBox="0 0 24 24" fill="currentColor">
        <path d="M12 3a9 9 0 00-9 9c0 7 8 10 9 10s9-3 9-10a9 9 0 00-9-9zm0 2.25a.75.75 0 01.75.75v.01a.75.75 0 01-1.5 0V6a.75.75 0 01.75-.75zm0 4.5a.75.75 0 01.75.75v.01a.75.75 0 01-1.5 0V10.5a.75.75 0 01.75-.75zM12 15a.75.75 0 01.75.75v.01a.75.75 0 01-1.5 0V15.75A.75.75 0 0112 15zm3.75-3.75a.75.75 0 000-1.5h-.01a.75.75 0 000 1.5h.01zM8.25 12a.75.75 0 01-.75-.75h-.01a.75.75 0 010-1.5h.01a.75.75 0 01.75.75v1.5z" />
    </svg>