<svg xmlns="http://www.w3.org/2000/svg" fill="none" viewBox="0 0 24 24" stroke-width="1.5" stroke="currentColor" aria-hidden="true">
        <g>
            <animateTransform attributeName="transform" type="translate" values="0 0; 0 -0.5; 0 0" dur="1s" repeatCount="indefinite" />
            <path stroke-linecap="round" stroke-linejoin="round" d="M10.125 2.25h-4.5c-.621 0-1.125.504-1.125 1.125v17.25c0 .621.504 1.125 1.125 1.125h12.75c.621 0 1.125-.504 1.125-1.125v-9M10.125 2.25h.375a9 9 0 019 9v.375M10.125 2.25A3.375 3.375 0 0113.5 5.625v1.5c0 .621.504 1.125 1.125 1.125h1.5a3.375 3.375 0 013.375 3.375M9 15l-3-3m0 0l3-3m-3 3h8.25" />
        </g>
    </svg>