<svg width="100%" height="100%" viewBox="0 0 100 100" xmlns="http://www.w3.org/2000/svg">
        <defs>
            <linearGradient id="grad-bug" x1="0%" y1="0%" x2="100%" y2="100%">
                <stop offset="0%" style="stop-color: #F87171; stop-opacity: 1" />
                <stop offset="100%" style="stop-color: #DC2626; stop-opacity: 1" />
            </linearGradient>
            <style>
                {`
                .glitch-line {
                    animation: glitch-anim 0.3s steps(1, end) infinite;
                }
                @keyframes glitch-anim {
                    0% { transform: translateY(0); }
                    20% { transform: translateY(2px); }
                    40% { transform: translateY(-2px); }
                    60% { transform: translateY(1px); }
                    80% { transform: translateY(-1px); }
                    100% { transform: translateY(0); }
                }
                `}
            </style>
        </defs>
        <rect width="100" height="100" rx="20" fill="url(#grad-bug)" />
        <g class="glitch-line">
            <path d="M50 30 C 40 25, 35 35, 35 45 L 35 60 C 35 75, 40 80, 50 80 C 60 80, 65 75, 65 60 L 65 45 C 65 35, 60 25, 50 30 Z" fill="#1F2937" />
            <circle cx="42" cy="40" r="5" fill="#FECACA" />
            <circle cx="58" cy="40" r="5" fill="#FECACA" />
            <g stroke="#1F2937" stroke-width="4" stroke-linecap="round">
                <path d="M35 50 L 25 45" />
                <path d="M35 60 L 25 65" />
                <path d="M65 50 L 75 45" />
                <path d="M65 60 L 75 65" />
            </g>
        </g>
    </svg>