<svg xmlns="http://www.w3.org/2000/svg" fill="none" viewBox="0 0 24 24" stroke-width="1.5" stroke="currentColor" aria-hidden="true"><path stroke-linecap="round" stroke-linejoin="round" d="M15.362 5.214A8.252 8.252 0 0112 21 8.25 8.25 0 018.638 5.214m8.25-2.472A8.25 8.25 0 0012 2.25 8.25 8.25 0 005.138 2.742M15.362 5.214a.963.963 0 01.963.963V7.5a.963.963 0 01-1.926 0V6.177a.963.963 0 01.963-.963zm-6.724 0a.963.963 0 01.963.963V7.5a.963.963 0 01-1.926 0V6.177a.963.963 0 01.963-.963zM12 14.25a3 3 0 100-6 3 3 0 000 6z" /></svg>