<svg width="100%" height="100%" viewBox="0 0 100 100" xmlns="http://www.w3.org/2000/svg">
        <defs>
            <linearGradient id="grad-enhance" x1="0%" y1="0%" x2="100%" y2="100%">
                <stop offset="0%" style="stop-color: #FBBF24; stop-opacity: 1" />
                <stop offset="100%" style="stop-color: #F59E0B; stop-opacity: 1" />
            </linearGradient>
            <filter id="glow-enhance" x="-50%" y="-50%" width="200%" height="200%">
                <feGaussianBlur stdDeviation="4" result="coloredBlur"/>
                <feMerge>
                    <feMergeNode in="coloredBlur"/>
                    <feMergeNode in="SourceGraphic"/>
                </feMerge>
            </filter>
            <style>
                .sparkle-enhance {
                    animation: sparkle-enhance-anim 2s infinite ease-in-out;
                    transform-origin: center;
                }
                @keyframes sparkle-enhance-anim {
                    0%, 100% { transform: scale(0.8); opacity: 0.7; }
                    50% { transform: scale(1.1); opacity: 1; }
                }
            </style>
        </defs>
        <rect width="100" height="100" rx="20" fill="url(#grad-enhance)" />
        <g transform="translate(0, -5)" filter="url(#glow-enhance)">
            <path d="M50,25 C40,25 35,35 35,45 C35,58 42,65 50,75 C58,65 65,58 65,45 C65,35 60,25 50,25 Z" fill="#FFFFFF" />
            <rect x="42" y="75" width="16" height="5" rx="2" fill="#FFFFFF" />
            <rect x="38" y="80" width="24" height="8" rx="3" fill="#FFFFFF" />
        </g>
        <path class="sparkle-enhance" d="M50 40 L 52 48 L 60 50 L 52 52 L 50 60 L 48 52 L 40 50 L 48 48 Z" fill="#8B5CF6" />
    </svg>