<svg xmlns="http://www.w3.org/2000/svg" fill="none" viewBox="0 0 24 24" stroke-width="1.5" stroke="currentColor" aria-hidden="true"><path stroke-linecap="round" stroke-linejoin="round" d="M7.217 10.907a2.25 2.25 0 100 2.186m0-2.186c.18.324.283.696.283 1.093s-.103.77-.283 1.093m0-2.186l9.566-5.314m-9.566 7.5l9.566 5.314m0 0a2.25 2.25 0 100-2.186m0 2.186c-.18.324-.283.696-.283 1.093s.103.77.283 1.093m-9.85-5.314a2.25 2.25 0 100-2.186m0 2.186c-.18.324-.283.696-.283 1.093s.103.77.283 1.093" /></svg>