<svg viewBox="0 0 100 100" xmlns="http://www.w3.org/2000/svg">
        <defs>
            <linearGradient id="grad-creativity" x1="0%" y1="0%" x2="100%" y2="100%">
                <stop offset="0%" stop-color="#fcd34d" />
                <stop offset="100%" stop-color="#fbbf24" />
            </linearGradient>
            <style>{`.sparkle-creativity { animation: sparkle-anim-creativity 2s infinite ease-in-out; } @keyframes sparkle-anim-creativity { 0%, 100% { transform: scale(0.8); opacity: 0.5; } 50% { transform: scale(1.1); opacity: 1; } }`}</style>
        </defs>
        <path d="M50 20 C 30 20, 25 40, 50 50 C 75 40, 70 20, 50 20 Z" fill="url(#grad-creativity)" />
        <path d="M50 50 C 25 60, 25 80, 50 80 C 75 80, 75 60, 50 50 Z" fill="#fef3c7" />
        <path class="sparkle-creativity" style="animation-delay: 0s" d="M30 25 L 32 30 L 34 25 L 39 23 L 34 21 L 32 16 L 30 21 L 25 23 Z" fill="#f59e0b"/>
        <path class="sparkle-creativity" style="animation-delay: 0.5s" d="M70 75 L 72 80 L 74 75 L 79 73 L 74 71 L 72 66 L 70 71 L 65 73 Z" fill="#f59e0b"/>
    </svg>