<svg width="100%" height="100%" viewBox="0 0 100 100" xmlns="http://www.w3.org/2000/svg">
    <defs>
        <linearGradient id="grad-motion" x1="0%" y1="0%" x2="100%" y2="100%">
            <stop offset="0%" style="stop-color:#f43f5e;stop-opacity:1" />
            <stop offset="100%" style="stop-color:#ec4899;stop-opacity:1" />
        </linearGradient>
        <style>
            .film-strip { animation: scroll-film 4s linear infinite; }
            @keyframes scroll-film { from { transform: translateY(0); } to { transform: translateY(-25px); } }
        </style>
    </defs>
    <rect width="100" height="100" rx="20" fill="url(#grad-motion)" />
    <g clip-path="url(#clip)">
        <g class="film-strip">
            <rect x="25" y="0" width="50" height="150" fill="#111827" />
            <g fill="#fff5f5">
                <rect x="28" y="5" width="6" height="6" /> <rect x="66" y="5" width="6" height="6" />
                <rect x="28" y="20" width="6" height="6" /> <rect x="66" y="20" width="6" height="6" />
                <rect x="28" y="35" width="6" height="6" /> <rect x="66" y="35" width="6" height="6" />
                <rect x="28" y="50" width="6" height="6" /> <rect x="66" y="50" width="6" height="6" />
                <rect x="28" y="65" width="6" height="6" /> <rect x="66" y="65" width="6" height="6" />
                <rect x="28" y="80" width="6" height="6" /> <rect x="66" y="80" width="6" height="6" />
                <rect x="28" y="95" width="6" height="6" /> <rect x="66" y="95" width="6" height="6" />
                 <rect x="28" y="110" width="6" height="6" /> <rect x="66" y="110" width="6" height="6" />
                 <rect x="28" y="125" width="6" height="6" /> <rect x="66" y="125" width="6" height="6" />
            </g>
        </g>
    </g>
     <path d="M45 40 L 35 50 L 45 60 M55 40 L 65 50 L 55 60" stroke="#fce7f3" stroke-width="5" fill="none" stroke-linecap="round" stroke-linejoin="round"/>
    <clipPath id="clip">
         <rect x="20" y="10" width="60" height="80" rx="5" />
    </clipPath>
</svg>