<svg xmlns="http://www.w3.org/2000/svg" viewBox="0 0 24 24" fill="currentColor" aria-hidden="true"><path fill-rule="evenodd" d="M9 4.5a.75.75 0 01.75.75v1.5a.75.75 0 01-1.5 0v-1.5A.75.75 0 019 4.5zm5.707.707a.75.75 0 011.06 0l1.061 1.06a.75.75 0 01-1.06 1.06l-1.06-1.06a.75.75 0 010-1.06zM18 9a.75.75 0 01.75.75v1.5a.75.75 0 01-1.5 0v-1.5A.75.75 0 0118 9zm-5.707 5.707a.75.75 0 011.06 0l1.06 1.061a.75.75 0 11-1.06 1.06l-1.06-1.06a.75.75 0 010-1.06zM9 18a.75.75 0 01.75.75v1.5a.75.75 0 01-1.5 0v-1.5A.75.75 0 019 18zm-5.707-5.707a.75.75 0 010-1.06l1.06-1.061a.75.75 0 011.06 1.06l-1.06 1.06a.75.75 0 01-1.06 0zM6 9a.75.75 0 01.75-.75h1.5a.75.75 0 010 1.5h-1.5A.75.75 0 016 9zm5.707-.707a.75.75 0 010-1.06l1.06-1.06a.75.75 0 111.06 1.06l-1.06 1.06a.75.75 0 01-1.06 0z" clip-rule="evenodd" /></svg>