<svg xmlns="http://www.w3.org/2000/svg" fill="none" viewBox="0 0 24 24" stroke-width="1.5" stroke="currentColor"><path stroke-linecap="round" stroke-linejoin="round" d="M3.75 4.5a.75.75 0 00-1.5 0v1.5a.75.75 0 001.5 0v-1.5z" /><path stroke-linecap="round" stroke-linejoin="round" d="M20.25 4.5a.75.75 0 00-1.5 0v1.5a.75.75 0 001.5 0v-1.5z" /><path stroke-linecap="round" stroke-linejoin="round" d="M4.5 9.75V11.25c0 .621.504 1.125 1.125 1.125h12.75c.621 0 1.125-.504 1.125-1.125V9.75" /><path stroke-linecap="round" stroke-linejoin="round" d="M4.5 9.75h.75v-.75a3 3 0 013-3h7.5a3 3 0 013 3v.75h.75" /><path stroke-linecap="round" stroke-linejoin="round" d="M6 12.75v6.75a2.25 2.25 0 002.25 2.25h7.5a2.25 2.25 0 002.25-2.25v-6.75" /><path stroke-linecap="round" stroke-linejoin="round" d="M12 12.75v1.5" /></svg>