<svg width="100%" height="100%" viewBox="0 0 100 100" xmlns="http://www.w3.org/2000/svg">
        <defs>
            <linearGradient id="grad-tip" x1="0%" y1="0%" x2="100%" y2="100%">
                <stop offset="0%" style="stop-color: #FBBF24; stop-opacity: 1" />
                <stop offset="100%" style="stop-color: #F59E0B; stop-opacity: 1" />
            </linearGradient>
            <filter id="glow-tip" x="-50%" y="-50%" width="200%" height="200%">
                <feGaussianBlur stdDeviation="4" result="coloredBlur"/>
                <feMerge>
                    <feMergeNode in="coloredBlur"/>
                    <feMergeNode in="SourceGraphic"/>
                </feMerge>
            </filter>
            <style>
            .rays-tip {
                    animation: spin-tip 20s linear infinite;
                    transform-origin: center;
                }
                @keyframes spin-tip {
                    from { transform: rotate(0deg); }
                    to { transform: rotate(360deg); }
                }
            </style>
        </defs>
        <rect width="100" height="100" rx="20" fill="url(#grad-tip)" />
        <g class="rays-tip" opacity="0.25">
            <path d="M50 0 V20 M50 100 V80 M0 50 H20 M100 50 H80 M15 15 L30 30 M85 85 L70 70 M15 85 L30 70 M85 15 L70 30" stroke="#FFFFFF" stroke-width="4" stroke-linecap="round" />
        </g>
        <g transform="translate(0, -5)" filter="url(#glow-tip)">
            <path d="M50,25 C40,25 35,35 35,45 C35,58 42,65 50,75 C58,65 65,58 65,45 C65,35 60,25 50,25 Z" fill="#FFFFFF" />
            <rect x="42" y="75" width="16" height="5" rx="2" fill="#FFFFFF" />
            <rect x="38" y="80" width="24" height="8" rx="3" fill="#FFFFFF" />
        </g>
    </svg>