<svg viewBox="0 0 100 100" xmlns="http://www.w3.org/2000/svg">
  <defs>
    <linearGradient id="grad-welcome" x1="0%" y1="0%" x2="100%" y2="100%">
      <stop offset="0%" style="stop-color:#3b82f6;stop-opacity:1" />
      <stop offset="100%" style="stop-color:#6366f1;stop-opacity:1" />
    </linearGradient>
    <style>
      .star-welcome { animation: twinkle-welcome 2s infinite ease-in-out; }
      @keyframes twinkle-welcome { 0%, 100% { opacity: 0.5; transform: scale(0.8); } 50% { opacity: 1; transform: scale(1.2); } }
      .logo-pulse { animation: pulse-logo 2.5s infinite ease-in-out; transform-origin: center; }
      @keyframes pulse-logo { 0%, 100% { transform: scale(1); } 50% { transform: scale(1.05); } }
    </style>
  </defs>
  <rect width="100" height="100" rx="20" fill="url(#grad-welcome)" />
  <g class="logo-pulse">
    <path d="M 35 25 H 55 A 15 15 0 0 1 70 40 V 55 A 15 15 0 0 1 55 70 H 35 V 25 Z M 35 40 H 55 V 55 H 35 V 40 Z" fill="white" />
  </g>
  <path class="star-welcome" d="M 15 15 L 17 20 L 19 15 L 24 13 L 19 11 L 17 6 L 15 11 L 10 13 Z" fill="white" style="animation-delay: -0.5s;" />
  <path class="star-welcome" d="M 85 85 L 87 90 L 89 85 L 94 83 L 89 81 L 87 76 L 85 81 L 80 83 Z" fill="white" style="animation-delay: -1s;" />
  <path class="star-welcome" d="M 80 20 L 82 25 L 84 20 L 89 18 L 84 16 L 82 11 L 80 16 L 75 18 Z" fill="white" style="animation-delay: -1.5s;" />
</svg>